<svg xmlns="http://www.w3.org/2000/svg" width="40" height="40" viewBox="0 0 24 24">
  <path fill="#43853d" d="M12 21.985c-.275 0-.532-.074-.772-.202l-2.439-1.448c-.365-.203-.182-.277-.072-.314c.496-.165.588-.203 1.109-.493c.056-.034.129-.02.182.021l1.87 1.12c.074.037.166.037.227 0l7.304-4.217c.074-.034.115-.108.115-.202v-8.428a.24.24 0 0 0-.115-.202l-7.304-4.219c-.074-.037-.166-.037-.227 0l-7.304 4.219A.213.213 0 0 0 4 7.771v8.428c0 .074.048.165.115.202l2 1.16c1.08.54 1.754-.095 1.754-.739V8.373c0-.115.095-.202.208-.202h.937c.109 0 .208.087.208.202v8.442c0 1.448-.788 2.28-2.154 2.28c-.422 0-.748 0-1.673-.45l-1.914-1.095a1.6 1.6 0 0 1-.793-1.384V7.771c0-.571.302-1.098.793-1.376l7.304-4.224c.48-.273 1.12-.273 1.6 0l7.304 4.224c.491.284.793.811.793 1.376v8.428c0 .565-.302 1.098-.793 1.376l-7.304 4.229c-.24.136-.504.2-.78.2zm2.187-5.899c-3.194 0-3.865-1.466-3.865-2.7c0-.115.095-.202.207-.202h.952c.109 0 .194.074.194.183c.142.936.532 1.4 2.513 1.4c1.546 0 2.203-.348 2.203-1.169c0-.473-.182-.818-2.596-1.053c-2.01-.202-3.252-.646-3.252-2.265c0-1.493 1.26-2.385 3.365-2.385c2.359 0 3.533.825 3.685 2.605a.182.182 0 0 1-.055.16a.22.22 0 0 1-.152.048h-.954c-.102 0-.186-.074-.207-.17c-.227-1.02-.791-1.345-2.318-1.345c-1.71 0-1.903.593-1.903 1.042c0 .54.237.7 2.5.992c2.252.3 3.323.71 3.323 2.306c0 1.619-1.346 2.553-3.694 2.553z"/>
</svg> 